<svg width="59" height="42" viewBox="0 0 59 42" fill="none" xmlns="http://www.w3.org/2000/svg">
<path d="M25.1761 20.3385C26.3473 21.4412 27.8968 22.0566 29.508 22.0589C31.1192 22.0613 32.6705 21.4504 33.8449 20.3511L55.0744 0.4767C54.315 0.162429 53.5009 0.000440341 52.6786 0H6.32143C5.54212 0.00443505 4.77043 0.153265 4.04571 0.4389L25.1761 20.3385Z" fill="#B67F5F"/>
<path d="M36.7296 23.4129C34.7705 25.242 32.1855 26.258 29.5011 26.2541C26.8166 26.2502 24.2346 25.2267 22.2809 23.3919L0.842857 3.2067C0.296491 4.14709 0.00595714 5.21336 0 6.3V35.7C0 37.3709 0.666006 38.9733 1.8515 40.1548C3.037 41.3363 4.64488 42 6.32143 42H52.6786C54.3551 42 55.963 41.3363 57.1485 40.1548C58.334 38.9733 59 37.3709 59 35.7V6.3C58.9929 5.25166 58.7196 4.22218 58.2056 3.3075L36.7296 23.4129Z" fill="#B67F5F"/>
</svg>
