<svg width="38" height="40" viewBox="0 0 38 40" fill="none" xmlns="http://www.w3.org/2000/svg">
<mask id="mask0_594_97" style="mask-type:luminance" maskUnits="userSpaceOnUse" x="0" y="0" width="38" height="40">
<path d="M37.2972 38.9843V0.0363693H0.0364586V38.9843H37.2972Z" fill="white" stroke="white" stroke-width="0.0729172"/>
</mask>
<g mask="url(#mask0_594_97)">
<path d="M35.8745 19.5104C35.8708 21.1144 35.8535 22.7184 35.8325 24.3223C35.8071 26.2574 35.7785 28.1934 35.3142 30.0954C34.8273 32.0898 33.867 33.81 32.3729 35.0834C30.7985 36.4253 28.8955 37.1307 26.8415 37.2612C24.1174 37.4344 21.392 37.5028 18.6667 37.4961C15.9414 37.5028 13.216 37.4344 10.4919 37.2612C8.43796 37.1307 6.53497 36.4253 4.96054 35.0834C3.46647 33.81 2.50615 32.0898 2.01921 30.0954C1.55487 28.1934 1.52629 26.2574 1.50099 24.3223C1.47999 22.7184 1.46256 21.1144 1.45898 19.5104C1.46256 17.9065 1.47999 16.3024 1.50099 14.6985C1.52629 12.7634 1.55487 10.8275 2.01921 8.92549C2.50615 6.93101 3.46647 5.21089 4.96054 3.93745C6.53497 2.5955 8.43796 1.89015 10.4919 1.7596C13.216 1.58645 15.9414 1.51801 18.6667 1.52471C21.392 1.51801 24.1174 1.58645 26.8415 1.7596C28.8955 1.89015 30.7985 2.5955 32.3729 3.93745C33.867 5.21089 34.8273 6.93101 35.3142 8.92549C35.7785 10.8275 35.8071 12.7634 35.8325 14.6985C35.8535 16.3024 35.8708 17.9065 35.8745 19.5104Z" stroke="#042A2B" stroke-width="2.91669" stroke-miterlimit="10"/>
<path d="M26.2501 19.5104C26.2501 23.9299 22.8223 27.5127 18.5938 27.5127C14.3653 27.5127 10.9375 23.9299 10.9375 19.5104C10.9375 15.0908 14.3653 11.5081 18.5938 11.5081C22.8223 11.5081 26.2501 15.0908 26.2501 19.5104Z" stroke="#042A2B" stroke-width="2.91669" stroke-miterlimit="10"/>
<path d="M28.729 11.4716C29.9155 11.4716 30.8801 10.4658 30.8801 9.22168C30.8801 7.97759 29.9155 6.97176 28.729 6.97176C27.5426 6.97176 26.578 7.97759 26.578 9.22168C26.578 10.4658 27.5426 11.4716 28.729 11.4716Z" fill="#042A2B" stroke="#042A2B" stroke-width="0.0729172"/>
</g>
</svg>
