<svg width="137" height="53" viewBox="0 0 137 53" fill="none" xmlns="http://www.w3.org/2000/svg">
<path d="M76.4913 5.92144C76.4913 5.29158 75.9837 4.78256 75.3555 4.78256C74.7273 4.78256 74.2196 5.29158 74.2196 5.92144C74.2196 10.7296 78.1203 14.6406 82.9159 14.6406C87.7114 14.6406 91.6121 10.7296 91.6121 5.92144C91.6121 5.29158 91.1044 4.78256 90.4762 4.78256C89.848 4.78256 89.3404 5.29158 89.3404 5.92144C89.3404 9.47357 86.455 12.3665 82.9122 12.3665C79.3694 12.3665 76.484 9.47357 76.484 5.92144H76.4913Z" fill="#B67F5F"/>
<path d="M60.6146 19.9688C60.6146 20.5987 61.1222 21.1077 61.7504 21.1077C62.3786 21.1077 62.8863 20.5987 62.8863 19.9688C62.8863 15.1606 58.9856 11.2496 54.19 11.2496C49.3945 11.2496 45.4938 15.1606 45.4938 19.9688C45.4938 20.5987 46.0015 21.1077 46.6297 21.1077C47.2579 21.1077 47.7655 20.5987 47.7655 19.9688C47.7655 16.4167 50.6509 13.5237 54.1937 13.5237C57.7365 13.5237 60.6218 16.4167 60.6218 19.9688H60.6146Z" fill="#B67F5F"/>
<path d="M42.1519 19.9688C42.1519 13.315 47.5501 7.89892 54.19 7.89892C58.7993 7.89892 63.0616 10.5941 65.0522 14.7615C65.0741 14.8091 65.0996 14.853 65.1252 14.8933C68.5329 21.679 75.3372 25.8866 82.9195 25.8866C93.9021 25.8866 102.836 16.9294 102.836 5.91778C102.836 5.28792 102.328 4.7789 101.7 4.7789C101.072 4.7789 100.564 5.28792 100.564 5.91778C100.564 15.6733 92.6494 23.6089 82.9195 23.6089C76.1626 23.6089 70.0997 19.8333 67.0975 13.7581C67.0792 13.7215 67.0573 13.6849 67.0354 13.6482C64.6431 8.76681 59.6175 5.62116 54.1864 5.62116C46.2973 5.62116 39.8801 12.0553 39.8801 19.9652C39.8801 20.595 40.3878 21.1041 41.016 21.1041C41.6442 21.1041 42.1519 20.595 42.1519 19.9652V19.9688Z" fill="#B67F5F"/>
<path d="M36.5419 19.9688C36.5419 10.2133 44.4565 2.27776 54.1864 2.27776C60.9834 2.27776 67.2509 6.262 70.1545 12.4288C70.1837 12.4911 70.2203 12.5496 70.2568 12.6046C72.744 17.3359 77.5798 20.2655 82.9195 20.2655C90.8086 20.2655 97.2258 13.8313 97.2258 5.92144C97.2258 5.29158 96.7181 4.78256 96.0899 4.78256C95.4617 4.78256 94.954 5.29158 94.954 5.92144C94.954 12.5753 89.5558 17.9914 82.9159 17.9914C78.376 17.9914 74.2707 15.4719 72.1962 11.4218C72.1779 11.3815 72.156 11.3448 72.1304 11.3082C68.8287 4.43101 61.8016 0 54.1864 0C43.2038 0 34.2701 8.95723 34.2701 19.9688C34.2701 20.5987 34.7778 21.1077 35.406 21.1077C36.0342 21.1077 36.5419 20.5987 36.5419 19.9688Z" fill="#B67F5F"/>
<path d="M0 31.8886V30.8083H7.25724V31.8886H4.2623V40.6371H2.98398V31.8886H0Z" fill="#B67F5F"/>
<path d="M8.19955 30.2847H9.47787V34.6864H9.50709C9.71162 34.3202 10.0294 34.0016 10.4238 33.7819C10.8037 33.5622 11.2529 33.4157 11.7314 33.4157C12.6773 33.4157 14.1894 33.9979 14.1894 36.4332V40.6298H12.9111V36.576C12.9111 35.4408 12.4911 34.4776 11.2821 34.4776C10.4531 34.4776 9.79928 35.0599 9.56553 35.7593C9.49248 35.9351 9.47787 36.1255 9.47787 36.3709V40.6261H8.19955V30.2773V30.2847Z" fill="#B67F5F"/>
<path d="M16.9798 37.3413C17.009 39.0771 18.1157 39.7912 19.394 39.7912C20.3108 39.7912 20.8623 39.6301 21.3407 39.425L21.5599 40.3442C21.1106 40.5492 20.34 40.7799 19.2187 40.7799C17.0529 40.7799 15.7599 39.3518 15.7599 37.2241C15.7599 35.0965 17.009 33.4193 19.0617 33.4193C21.359 33.4193 21.9689 35.4444 21.9689 36.7444C21.9689 37.0081 21.9397 37.2095 21.9251 37.3413H16.9798ZM20.7308 36.4222C20.7454 35.6055 20.3948 34.3385 18.9557 34.3385C17.6628 34.3385 17.093 35.5323 16.9908 36.4222H20.7308Z" fill="#B67F5F"/>
<path d="M26.6768 30.9402C27.2283 30.823 28.1013 30.7351 28.9888 30.7351C30.2525 30.7351 31.067 30.9548 31.6806 31.4492C32.1882 31.83 32.495 32.4123 32.495 33.185C32.495 34.1334 31.8705 34.9647 30.8369 35.3419V35.3712C31.7682 35.6055 32.8566 36.3782 32.8566 37.8357C32.8566 38.6816 32.5206 39.3225 32.0275 39.8058C31.3445 40.432 30.2379 40.725 28.6381 40.725C27.7652 40.725 27.0969 40.6664 26.6732 40.6078V30.9438L26.6768 30.9402ZM29.0874 34.9647C30.4241 34.9647 31.2094 34.2653 31.2094 33.3168C31.2094 32.1633 30.3365 31.7128 29.0582 31.7128C28.4774 31.7128 28.1414 31.7568 27.9369 31.8007V34.9647H29.0874ZM27.9405 39.674C28.1889 39.718 28.5505 39.7326 29.0034 39.7326C30.3109 39.7326 31.5199 39.2529 31.5199 37.821C31.5199 36.4808 30.373 35.9278 28.9888 35.9278H27.9405V39.674Z" fill="#B67F5F"/>
<path d="M35.2818 37.3413C35.311 39.0771 36.4177 39.7912 37.696 39.7912C38.6127 39.7912 39.1642 39.6301 39.6427 39.425L39.8618 40.3442C39.4126 40.5492 38.642 40.7799 37.5207 40.7799C35.3548 40.7799 34.0619 39.3518 34.0619 37.2241C34.0619 35.0965 35.311 33.4193 37.3636 33.4193C39.661 33.4193 40.2709 35.4444 40.2709 36.7444C40.2709 37.0081 40.2417 37.2095 40.2271 37.3413H35.2818ZM39.0364 36.4222C39.051 35.6055 38.7004 34.3385 37.2614 34.3385C35.9684 34.3385 35.3987 35.5323 35.2964 36.4222H39.0364Z" fill="#B67F5F"/>
<path d="M45.7531 40.6371L45.6508 39.7473H45.607C45.2162 40.3002 44.4602 40.7983 43.4558 40.7983C42.0313 40.7983 41.3045 39.7912 41.3045 38.7732C41.3045 37.0667 42.8166 36.1329 45.534 36.1475V36.001C45.534 35.4188 45.3733 34.3678 43.9342 34.3678C43.2805 34.3678 42.5975 34.5729 42.1007 34.8915L41.8086 34.0455C42.3893 33.6647 43.233 33.4193 44.1205 33.4193C46.2717 33.4193 46.7977 34.8915 46.7977 36.305V38.9453C46.7977 39.5568 46.8269 40.1537 46.9145 40.6371H45.7531ZM45.5632 37.0337C44.168 37.0044 42.5829 37.2534 42.5829 38.623C42.5829 39.4543 43.1344 39.8461 43.7881 39.8461C44.7049 39.8461 45.2856 39.2639 45.4901 38.667C45.534 38.5351 45.5632 38.3887 45.5632 38.2568V37.0337Z" fill="#B67F5F"/>
<path d="M54.7525 38.7109C54.7525 39.4396 54.7671 40.0805 54.811 40.6335H53.6751L53.602 39.4836H53.5728C53.2368 40.0512 52.4954 40.7946 51.2462 40.7946C50.1396 40.7946 48.8174 40.183 48.8174 37.7039V33.5768H50.0958V37.4841C50.0958 38.8244 50.5012 39.7289 51.6663 39.7289C52.5246 39.7289 53.1199 39.132 53.3537 38.5644C53.4267 38.374 53.4705 38.1396 53.4705 37.9089V33.5805H54.7489V38.7109H54.7525Z" fill="#B67F5F"/>
<path d="M58.4122 33.5805H60.2457V34.5582H58.4122V38.363C58.4122 39.2382 58.6605 39.7326 59.3727 39.7326C59.7088 39.7326 59.9535 39.6887 60.1142 39.6447L60.1726 40.6078C59.9243 40.7104 59.5335 40.7836 59.0367 40.7836C58.4414 40.7836 57.9593 40.5932 57.6561 40.2453C57.2909 39.8644 57.1631 39.2382 57.1631 38.407V34.5582H56.071V33.5805H57.1631V31.8886L58.4122 31.5517V33.5805Z" fill="#B67F5F"/>
<path d="M62.28 33.5805L63.8213 37.7515C63.982 38.2165 64.1573 38.7732 64.2706 39.1943H64.2998C64.4313 38.7732 64.5774 38.2312 64.749 37.7222L66.1442 33.5805H67.4956L65.5781 38.6084C64.6614 41.0289 64.0368 42.2667 63.1639 43.0247C62.5393 43.5777 61.9148 43.7974 61.5934 43.856L61.272 42.7757C61.5934 42.6732 62.0134 42.4681 62.3932 42.1495C62.7439 41.8712 63.1785 41.3768 63.4707 40.7213C63.5291 40.5895 63.573 40.487 63.573 40.4137C63.573 40.3405 63.5437 40.238 63.4853 40.0768L60.8812 33.5768H62.2764L62.28 33.5805Z" fill="#B67F5F"/>
<path d="M71.7871 30.8083H73.0508V39.5715H77.2364V40.6371H71.7835V30.812L71.7871 30.8083Z" fill="#B67F5F"/>
<path d="M82.5031 40.6371L82.4009 39.7473H82.357C81.9662 40.3002 81.2102 40.7983 80.2058 40.7983C78.7814 40.7983 78.0546 39.7912 78.0546 38.7732C78.0546 37.0667 79.5666 36.1329 82.284 36.1475V36.001C82.284 35.4188 82.1233 34.3678 80.6843 34.3678C80.0305 34.3678 79.3475 34.5729 78.8508 34.8915L78.5586 34.0455C79.1393 33.6647 79.983 33.4193 80.8705 33.4193C83.0218 33.4193 83.5477 34.8915 83.5477 36.305V38.9453C83.5477 39.5568 83.5769 40.1537 83.6646 40.6371H82.5031ZM82.3132 37.0337C80.918 37.0044 79.3329 37.2534 79.3329 38.623C79.3329 39.4543 79.8844 39.8461 80.5382 39.8461C81.4549 39.8461 82.0356 39.2639 82.2402 38.667C82.284 38.5351 82.3132 38.3887 82.3132 38.2568V37.0337Z" fill="#B67F5F"/>
<path d="M85.5565 40.6371C85.5857 40.1574 85.615 39.4433 85.615 38.8134V30.2847H86.8787V34.7157H86.9079C87.3571 33.9284 88.1716 33.4193 89.3075 33.4193C91.0533 33.4193 92.2878 34.8768 92.2732 37.0191C92.2732 39.5422 90.6881 40.7946 89.1176 40.7946C88.0986 40.7946 87.2841 40.3991 86.7618 39.4689H86.718L86.6595 40.6335H85.5529L85.5565 40.6371ZM86.8787 37.8064C86.8787 37.9675 86.9079 38.1287 86.9371 38.2715C87.1855 39.1613 87.9269 39.7729 88.8546 39.7729C90.1914 39.7729 90.9912 38.678 90.9912 37.063C90.9912 35.6495 90.2644 34.4374 88.8984 34.4374C88.0255 34.4374 87.211 35.0343 86.9517 36.012C86.9225 36.1585 86.8787 36.3343 86.8787 36.5357V37.8064Z" fill="#B67F5F"/>
<path d="M100.254 37.0484C100.254 39.6594 98.4493 40.7946 96.751 40.7946C94.8445 40.7946 93.3762 39.3957 93.3762 37.1656C93.3762 34.8036 94.9175 33.4193 96.8642 33.4193C98.8109 33.4193 100.254 34.8915 100.254 37.0484ZM94.6691 37.1216C94.6691 38.667 95.5567 39.8315 96.8058 39.8315C98.0549 39.8315 98.9424 38.6816 98.9424 37.0923C98.9424 35.8985 98.3471 34.3824 96.835 34.3824C95.3229 34.3824 94.6691 35.7813 94.6691 37.1216Z" fill="#B67F5F"/>
<path d="M101.868 35.7813C101.868 34.95 101.853 34.236 101.81 33.5805H102.931L102.975 34.9647H103.033C103.354 34.0162 104.125 33.4193 104.98 33.4193C105.126 33.4193 105.228 33.434 105.345 33.4633V34.6717C105.214 34.6424 105.082 34.6278 104.91 34.6278C104.008 34.6278 103.369 35.3126 103.194 36.2757C103.165 36.4515 103.135 36.6565 103.135 36.8726V40.6335H101.872V35.7777L101.868 35.7813Z" fill="#B67F5F"/>
<path d="M110.444 40.6371L110.341 39.7473H110.298C109.907 40.3002 109.151 40.7983 108.146 40.7983C106.722 40.7983 105.995 39.7912 105.995 38.7732C105.995 37.0667 107.507 36.1329 110.225 36.1475V36.001C110.225 35.4188 110.064 34.3678 108.625 34.3678C107.971 34.3678 107.288 34.5729 106.791 34.8915L106.499 34.0455C107.08 33.6647 107.924 33.4193 108.811 33.4193C110.962 33.4193 111.488 34.8915 111.488 36.305V38.9453C111.488 39.5568 111.517 40.1537 111.605 40.6371H110.444ZM110.254 37.0337C108.859 37.0044 107.273 37.2534 107.273 38.623C107.273 39.4543 107.825 39.8461 108.479 39.8461C109.395 39.8461 109.976 39.2639 110.181 38.667C110.225 38.5351 110.254 38.3887 110.254 38.2568V37.0337Z" fill="#B67F5F"/>
<path d="M115.038 33.5805H116.872V34.5582H115.038V38.363C115.038 39.2382 115.287 39.7326 115.999 39.7326C116.335 39.7326 116.58 39.6887 116.74 39.6447L116.799 40.6078C116.55 40.7104 116.16 40.7836 115.663 40.7836C115.068 40.7836 114.585 40.5932 114.282 40.2453C113.917 39.8644 113.789 39.2382 113.789 38.407V34.5582H112.697V33.5805H113.789V31.8886L115.038 31.5517V33.5805Z" fill="#B67F5F"/>
<path d="M124.589 37.0484C124.589 39.6594 122.785 40.7946 121.087 40.7946C119.18 40.7946 117.712 39.3957 117.712 37.1656C117.712 34.8036 119.253 33.4193 121.2 33.4193C123.147 33.4193 124.589 34.8915 124.589 37.0484ZM119.005 37.1216C119.005 38.667 119.892 39.8315 121.141 39.8315C122.391 39.8315 123.278 38.6816 123.278 37.0923C123.278 35.8985 122.683 34.3824 121.171 34.3824C119.659 34.3824 119.005 35.7813 119.005 37.1216Z" fill="#B67F5F"/>
<path d="M126.204 35.7813C126.204 34.95 126.189 34.236 126.145 33.5805H127.266L127.31 34.9647H127.369C127.69 34.0162 128.461 33.4193 129.315 33.4193C129.462 33.4193 129.564 33.434 129.681 33.4633V34.6717C129.549 34.6424 129.418 34.6278 129.246 34.6278C128.344 34.6278 127.705 35.3126 127.529 36.2757C127.5 36.4515 127.471 36.6565 127.471 36.8726V40.6335H126.207V35.7777L126.204 35.7813Z" fill="#B67F5F"/>
<path d="M131.784 33.5805L133.326 37.7515C133.486 38.2165 133.662 38.7732 133.775 39.1943H133.804C133.936 38.7732 134.082 38.2312 134.253 37.7222L135.649 33.5805H137L135.083 38.6084C134.166 41.0289 133.541 42.2667 132.668 43.0247C132.044 43.5777 131.419 43.7974 131.098 43.856L130.776 42.7757C131.098 42.6732 131.518 42.4681 131.898 42.1495C132.248 41.8712 132.683 41.3768 132.975 40.7213C133.034 40.5895 133.077 40.487 133.077 40.4137C133.077 40.3405 133.048 40.238 132.99 40.0768L130.386 33.5768H131.781L131.784 33.5805Z" fill="#B67F5F"/>
<path d="M39.577 46.8039H40.1613V48.8143H40.1759C40.2673 48.6496 40.4133 48.5031 40.596 48.4005C40.7676 48.3017 40.9758 48.2357 41.195 48.2357C41.6259 48.2357 42.3162 48.5031 42.3162 49.6127V51.5315H41.7319V49.6786C41.7319 49.1586 41.5383 48.7191 40.9868 48.7191C40.6069 48.7191 40.3074 48.9865 40.2015 49.3051C40.1686 49.3856 40.1613 49.4735 40.1613 49.5834V51.5279H39.577V46.8003V46.8039Z" fill="#B67F5F"/>
<path d="M45.0445 51.5315L44.9971 51.1251H44.9788C44.7998 51.3777 44.4529 51.6048 43.9963 51.6048C43.3462 51.6048 43.0138 51.147 43.0138 50.6783C43.0138 49.8983 43.7041 49.4735 44.9459 49.4808V49.4149C44.9459 49.1476 44.8729 48.6679 44.2155 48.6679C43.916 48.6679 43.6055 48.7594 43.3791 48.9096L43.2476 48.525C43.5142 48.3529 43.8977 48.2394 44.3031 48.2394C45.2856 48.2394 45.5267 48.9132 45.5267 49.5577V50.7625C45.5267 51.0408 45.5413 51.3155 45.5814 51.5352H45.0482L45.0445 51.5315ZM44.9605 49.8873C44.3214 49.8727 43.5982 49.9862 43.5982 50.6124C43.5982 50.9932 43.8502 51.1727 44.1497 51.1727C44.5697 51.1727 44.8327 50.9053 44.9277 50.6344C44.9459 50.5758 44.9605 50.5062 44.9605 50.4476V49.8873Z" fill="#B67F5F"/>
<path d="M47.1191 47.4045C47.1264 47.6022 46.9803 47.7634 46.7465 47.7634C46.542 47.7634 46.3959 47.6022 46.3959 47.4045C46.3959 47.2067 46.5493 47.0383 46.7612 47.0383C46.973 47.0383 47.1191 47.1994 47.1191 47.4045ZM46.469 51.5315V48.309H47.0533V51.5315H46.469Z" fill="#B67F5F"/>
<path d="M48.0212 49.316C48.0212 48.9352 48.0139 48.6093 47.9957 48.309H48.507L48.5252 48.9425H48.5508C48.6969 48.5104 49.0475 48.2358 49.442 48.2358C49.5077 48.2358 49.5552 48.2431 49.61 48.2541V48.807C49.5516 48.7924 49.4895 48.7887 49.4091 48.7887C48.9964 48.7887 48.7042 49.1 48.6239 49.5394C48.6092 49.62 48.5983 49.7115 48.5983 49.8141V51.5315H48.0212V49.3124V49.316Z" fill="#B67F5F"/>
<path d="M51.5238 50.9346C51.6955 51.0482 52.0023 51.169 52.2945 51.169C52.7181 51.169 52.919 50.9566 52.919 50.6893C52.919 50.411 52.7547 50.2572 52.32 50.096C51.743 49.891 51.469 49.5687 51.469 49.1842C51.469 48.6642 51.8891 48.2394 52.5794 48.2394C52.9044 48.2394 53.1893 48.331 53.3683 48.4408L53.2222 48.8656C53.0943 48.785 52.8642 48.6788 52.5648 48.6788C52.2178 48.6788 52.0279 48.8803 52.0279 49.1183C52.0279 49.3856 52.2214 49.5065 52.6378 49.6639C53.1966 49.8763 53.4815 50.1583 53.4815 50.638C53.4815 51.2056 53.0432 51.6048 52.2799 51.6048C51.9292 51.6048 51.6042 51.5169 51.3777 51.3851L51.5238 50.9383V50.9346Z" fill="#B67F5F"/>
<path d="M56.0126 51.5315L55.9651 51.1251H55.9468C55.7679 51.3777 55.4209 51.6048 54.9644 51.6048C54.3142 51.6048 53.9819 51.147 53.9819 50.6783C53.9819 49.8983 54.6722 49.4735 55.914 49.4808V49.4149C55.914 49.1476 55.8409 48.6679 55.1835 48.6679C54.884 48.6679 54.5735 48.7594 54.3471 48.9096L54.2156 48.525C54.4822 48.3529 54.8657 48.2394 55.2711 48.2394C56.2536 48.2394 56.4947 48.9132 56.4947 49.5577V50.7625C56.4947 51.0408 56.5093 51.3155 56.5495 51.5352H56.0162L56.0126 51.5315ZM55.9286 49.8873C55.2894 49.8727 54.5662 49.9862 54.5662 50.6124C54.5662 50.9932 54.8183 51.1727 55.1177 51.1727C55.5378 51.1727 55.8007 50.9053 55.8957 50.6344C55.914 50.5758 55.9286 50.5062 55.9286 50.4476V49.8873Z" fill="#B67F5F"/>
<path d="M57.437 46.8039H58.0214V51.5315H57.437V46.8039Z" fill="#B67F5F"/>
<path d="M61.9111 49.8946C61.9111 51.0884 61.0894 51.6048 60.3114 51.6048C59.4421 51.6048 58.7701 50.9639 58.7701 49.9459C58.7701 48.8656 59.475 48.2358 60.3662 48.2358C61.2574 48.2358 61.9148 48.9096 61.9148 49.8946H61.9111ZM59.3618 49.9276C59.3618 50.6344 59.7672 51.1653 60.337 51.1653C60.9067 51.1653 61.3121 50.638 61.3121 49.9129C61.3121 49.3673 61.0382 48.6752 60.3479 48.6752C59.6576 48.6752 59.3581 49.316 59.3581 49.9276H59.3618Z" fill="#B67F5F"/>
<path d="M62.6526 49.1805C62.6526 48.8473 62.6453 48.5727 62.627 48.309H63.1456L63.1785 48.8436H63.1931C63.3538 48.536 63.7264 48.2358 64.256 48.2358C64.7015 48.2358 65.3918 48.5031 65.3918 49.609V51.5352H64.8075V49.6786C64.8075 49.1586 64.6139 48.7265 64.0624 48.7265C63.6789 48.7265 63.3794 49.0011 63.2771 49.327C63.2516 49.4003 63.2369 49.4991 63.2369 49.6017V51.5389H62.6526V49.1805Z" fill="#B67F5F"/>
<path d="M70.5709 51.5315C70.443 51.4034 70.3262 51.2789 70.1509 51.0921C69.7674 51.451 69.3327 51.6048 68.8433 51.6048C67.9741 51.6048 67.4664 51.0189 67.4664 50.3451C67.4664 49.7335 67.8316 49.3124 68.3429 49.0341V49.0158C68.1092 48.7228 67.9704 48.3969 67.9704 48.0783C67.9704 47.5326 68.3612 46.9724 69.1063 46.9724C69.6651 46.9724 70.0961 47.3459 70.0961 47.9245C70.0961 48.3969 69.8222 48.7704 69.1136 49.122V49.1403C69.4934 49.5797 69.9171 50.0741 70.202 50.3927C70.4065 50.0814 70.549 49.6456 70.633 49.0817H71.1662C71.0457 49.7884 70.8521 50.3487 70.5234 50.7406C70.7608 50.9932 70.9946 51.2459 71.2612 51.5315H70.5709ZM69.866 50.7589C69.5993 50.4659 69.1026 49.9203 68.6023 49.3453C68.3649 49.4991 68.0252 49.7848 68.0252 50.2572C68.0252 50.7699 68.405 51.1617 68.9419 51.1617C69.3254 51.1617 69.6541 50.9896 69.866 50.7552V50.7589ZM68.5036 48.0234C68.5036 48.3419 68.6497 48.591 68.8433 48.829C69.2962 48.569 69.5884 48.331 69.5884 47.9501C69.5884 47.6755 69.435 47.3715 69.0698 47.3715C68.7045 47.3715 68.5036 47.6791 68.5036 48.0234Z" fill="#B67F5F"/>
<path d="M73.1458 51.5315C73.1604 51.3118 73.1714 50.9859 73.1714 50.7003V46.8039H73.7484V48.829H73.763C73.9676 48.4701 74.3401 48.2357 74.8587 48.2357C75.655 48.2357 76.2211 48.9022 76.2138 49.88C76.2138 51.0335 75.4906 51.6048 74.7711 51.6048C74.3072 51.6048 73.9347 51.4253 73.6936 50.9969H73.6754L73.6498 51.5315H73.1458ZM73.7521 50.2389C73.7521 50.3121 73.7667 50.3853 73.7776 50.4513C73.8909 50.8577 74.2305 51.136 74.6542 51.136C75.2642 51.136 75.6294 50.638 75.6294 49.8983C75.6294 49.2538 75.297 48.7008 74.6725 48.7008C74.2744 48.7008 73.9018 48.9755 73.7813 49.4186C73.7667 49.4845 73.7484 49.5651 73.7484 49.6603V50.2389H73.7521Z" fill="#B67F5F"/>
<path d="M79.8625 49.8946C79.8625 51.0884 79.0407 51.6048 78.2627 51.6048C77.3935 51.6048 76.7215 50.9639 76.7215 49.9459C76.7215 48.8656 77.4264 48.2358 78.3175 48.2358C79.2087 48.2358 79.8661 48.9096 79.8661 49.8946H79.8625ZM77.3131 49.9276C77.3131 50.6344 77.7186 51.1653 78.2883 51.1653C78.8581 51.1653 79.2635 50.638 79.2635 49.9129C79.2635 49.3673 78.9896 48.6752 78.2993 48.6752C77.609 48.6752 77.3095 49.316 77.3095 49.9276H77.3131Z" fill="#B67F5F"/>
<path d="M83.3797 46.8039V50.7003C83.3797 50.9859 83.387 51.3118 83.4053 51.5315H82.8793L82.8538 50.9713H82.8392C82.6602 51.3301 82.2694 51.6048 81.7434 51.6048C80.9655 51.6048 80.3702 50.9456 80.3702 49.9679C80.3629 48.8949 81.0276 48.2357 81.8128 48.2357C82.3059 48.2357 82.6383 48.4701 82.7844 48.7301H82.799V46.8039H83.3834H83.3797ZM82.7953 49.62C82.7953 49.5467 82.788 49.4479 82.7698 49.3746C82.6821 49.0011 82.3643 48.6935 81.9261 48.6935C81.3198 48.6935 80.9618 49.2281 80.9618 49.9386C80.9618 50.5904 81.2796 51.1324 81.9115 51.1324C82.3023 51.1324 82.6602 50.8724 82.7698 50.4329C82.788 50.3524 82.7953 50.2718 82.7953 50.1803V49.62Z" fill="#B67F5F"/>
<path d="M84.5631 48.309L85.268 50.2132C85.341 50.4256 85.4214 50.6783 85.4725 50.8724H85.4871C85.5456 50.6783 85.6113 50.4329 85.6916 50.1986L86.3308 48.3053H86.9481L86.0715 50.6014C85.6515 51.7073 85.3666 52.2749 84.9685 52.6192C84.6836 52.8718 84.3987 52.9707 84.2526 53L84.1065 52.5056C84.2526 52.458 84.4462 52.3665 84.6178 52.22C84.7785 52.0918 84.9758 51.8685 85.1109 51.5682C85.1365 51.5096 85.1584 51.462 85.1584 51.429C85.1584 51.396 85.1438 51.3484 85.1182 51.2752L83.9312 48.3053H84.5704L84.5631 48.309Z" fill="#B67F5F"/>
<path d="M88.8071 50.9346C88.9788 51.0482 89.2856 51.169 89.5778 51.169C90.0014 51.169 90.2023 50.9566 90.2023 50.6893C90.2023 50.411 90.038 50.2572 89.6033 50.096C89.0263 49.891 88.7523 49.5687 88.7523 49.1842C88.7523 48.6642 89.1723 48.2394 89.8626 48.2394C90.1877 48.2394 90.4726 48.331 90.6552 48.4408L90.5091 48.8656C90.3813 48.785 90.1512 48.6788 89.8517 48.6788C89.5047 48.6788 89.3148 48.8803 89.3148 49.1183C89.3148 49.3856 89.5084 49.5065 89.9247 49.6639C90.4835 49.8763 90.7684 50.1583 90.7684 50.638C90.7684 51.2056 90.3301 51.6048 89.5668 51.6048C89.2162 51.6048 88.8911 51.5169 88.6647 51.3851L88.8108 50.9383L88.8071 50.9346Z" fill="#B67F5F"/>
<path d="M91.5172 49.36C91.5172 48.9462 91.5026 48.6129 91.4916 48.309H92.0175L92.0431 48.8619H92.0577C92.2988 48.4701 92.675 48.2358 93.2009 48.2358C93.9789 48.2358 94.5632 48.8949 94.5632 49.8727C94.5632 51.0299 93.8583 51.6048 93.1023 51.6048C92.6786 51.6048 92.3061 51.418 92.1125 51.0994H92.0979V52.8499H91.5208V49.36H91.5172ZM92.0942 50.2206C92.0942 50.3084 92.1088 50.389 92.1198 50.4622C92.2257 50.8687 92.5763 51.147 92.9964 51.147C93.6136 51.147 93.9715 50.6417 93.9715 49.902C93.9715 49.2575 93.6319 48.7045 93.0146 48.7045C92.6165 48.7045 92.244 48.9901 92.1308 49.4296C92.1125 49.5028 92.0906 49.5907 92.0906 49.6676V50.2206H92.0942Z" fill="#B67F5F"/>
<path d="M97.076 51.5315L97.0286 51.1251H97.0103C96.8313 51.3777 96.4844 51.6048 96.0278 51.6048C95.3777 51.6048 95.0453 51.147 95.0453 50.6783C95.0453 49.8983 95.7356 49.4735 96.9774 49.4808V49.4149C96.9774 49.1476 96.9044 48.6679 96.247 48.6679C95.9475 48.6679 95.637 48.7594 95.4106 48.9096L95.2791 48.525C95.5457 48.3529 95.9292 48.2394 96.3346 48.2394C97.3171 48.2394 97.5582 48.9132 97.5582 49.5577V50.7625C97.5582 51.0408 97.5728 51.3155 97.6129 51.5352H97.0797L97.076 51.5315ZM96.9921 49.8873C96.3529 49.8727 95.6297 49.9862 95.6297 50.6124C95.6297 50.9932 95.8817 51.1727 96.1812 51.1727C96.6012 51.1727 96.8642 50.9053 96.9592 50.6344C96.9774 50.5758 96.9921 50.5062 96.9921 50.4476V49.8873Z" fill="#B67F5F"/>
</svg>
