<svg width="221" height="587" viewBox="0 0 221 587" fill="none" xmlns="http://www.w3.org/2000/svg">
<path d="M50.3788 225.39C45.0518 225.39 40.6886 229.705 40.6886 235.086C40.6886 240.467 45.001 244.783 50.3788 244.783C91.3212 244.783 124.603 211.481 124.603 170.514C124.603 129.547 91.3212 96.245 50.3788 96.245C45.0518 96.245 40.6886 100.56 40.6886 105.941C40.6886 111.322 45.001 115.637 50.3788 115.637C80.6163 115.637 105.273 140.258 105.273 170.564C105.273 200.871 80.667 225.492 50.3788 225.492V225.39Z" fill="#042A2B"/>
<path d="M170.01 360.983C175.337 360.983 179.7 356.668 179.7 351.287C179.7 345.906 175.387 341.591 170.01 341.591C129.067 341.591 95.7857 374.892 95.7857 415.86C95.7857 456.827 129.067 490.128 170.01 490.128C175.337 490.128 179.7 485.813 179.7 480.432C179.7 475.051 175.387 470.736 170.01 470.736C139.772 470.736 115.115 446.115 115.115 415.809C115.115 385.502 139.721 360.881 170.01 360.881V360.983Z" fill="#042A2B"/>
<path d="M170.01 518.76C113.34 518.76 67.2733 472.614 67.2733 415.961C67.2733 376.618 90.205 340.169 125.719 323.163C126.125 322.96 126.48 322.757 126.835 322.503C184.621 293.415 220.439 235.239 220.439 170.514C220.388 76.7006 144.135 0.350464 50.3788 0.350464C45.0518 0.350464 40.6886 4.66546 40.6886 10.0465C40.6886 15.4276 45.001 19.7426 50.3788 19.7426C133.43 19.7426 201.008 87.3612 201.008 170.463C201.008 228.182 168.893 279.962 117.145 305.599C116.84 305.751 116.536 305.954 116.232 306.106C74.6804 326.514 47.8929 369.461 47.8929 415.86C47.8929 483.224 102.686 538.05 170.01 538.05C175.337 538.05 179.7 533.735 179.7 528.354C179.7 522.973 175.387 518.658 170.01 518.658V518.76Z" fill="#042A2B"/>
<path d="M170.01 566.631C86.958 566.631 19.3804 499.012 19.3804 415.91C19.3804 357.835 53.3214 304.329 105.831 279.506C106.389 279.252 106.846 278.947 107.353 278.643C147.636 257.423 172.597 216.1 172.597 170.514C172.597 103.149 117.804 48.3231 50.4803 48.3231C45.1532 48.3231 40.7901 52.6381 40.7901 58.0192C40.7901 63.4002 45.1025 67.7152 50.4803 67.7152C107.15 67.7152 153.217 113.86 153.217 170.514C153.217 209.298 131.756 244.376 97.257 262.093C96.9019 262.246 96.5975 262.449 96.2931 262.652C37.7461 290.826 0 350.881 0 415.91C0 509.723 76.2532 586.023 170.01 586.023C175.337 586.023 179.7 581.708 179.7 576.327C179.7 570.946 175.387 566.631 170.01 566.631Z" fill="#042A2B"/>
</svg>
