<svg width="218" height="38" viewBox="0 0 218 38" fill="none" xmlns="http://www.w3.org/2000/svg">
<path d="M18.255 0.739136L22.3535 13.353H35.6165L24.8865 21.1488L28.985 33.7627L18.255 25.9669L7.52497 33.7627L11.6235 21.1488L0.893463 13.353H14.1565L18.255 0.739136Z" fill="#E6B91C"/>
<path d="M63.4579 0.739136L67.5564 13.353H80.8194L70.0894 21.1488L74.1879 33.7627L63.4579 25.9669L52.7279 33.7627L56.8264 21.1488L46.0963 13.353H59.3594L63.4579 0.739136Z" fill="#E6B91C"/>
<path d="M108.661 0.739136L112.759 13.353H126.022L115.292 21.1488L119.391 33.7627L108.661 25.9669L97.9305 33.7627L102.029 21.1488L91.299 13.353H104.562L108.661 0.739136Z" fill="#E6B91C"/>
<path d="M153.863 0.739136L157.962 13.353H171.225L160.495 21.1488L164.593 33.7627L153.863 25.9669L143.133 33.7627L147.232 21.1488L136.502 13.353H149.765L153.863 0.739136Z" fill="#E6B91C"/>
<path d="M199.066 0.739136L203.165 13.353H216.428L205.698 21.1488L209.796 33.7627L199.066 25.9669L188.336 33.7627L192.435 21.1488L181.705 13.353H194.968L199.066 0.739136Z" fill="#E6B91C"/>
</svg>
